<?xml version="1.0" encoding="UTF-8" standalone="no"?>
<svg
   style="height: 512px; width: 512px;"
   viewBox="0 0 512 512"
   version="1.1"
   id="svg959"
   sodipodi:docname="halberd.svg"
   inkscape:version="1.1 (c68e22c387, 2021-05-23)"
   xmlns:inkscape="http://www.inkscape.org/namespaces/inkscape"
   xmlns:sodipodi="http://sodipodi.sourceforge.net/DTD/sodipodi-0.dtd"
   xmlns="http://www.w3.org/2000/svg"
   xmlns:svg="http://www.w3.org/2000/svg">
  <defs
     id="defs963" />
  <sodipodi:namedview
     id="namedview961"
     pagecolor="#ffffff"
     bordercolor="#999999"
     borderopacity="1"
     inkscape:pageshadow="0"
     inkscape:pageopacity="0"
     inkscape:pagecheckerboard="0"
     showgrid="false"
     inkscape:zoom="1.3710938"
     inkscape:cx="255.63533"
     inkscape:cy="256"
     inkscape:window-width="1500"
     inkscape:window-height="930"
     inkscape:window-x="-6"
     inkscape:window-y="-6"
     inkscape:window-maximized="1"
     inkscape:current-layer="svg959" />
  <g
     class=""
     style="fill:#000000;fill-opacity:1"
     transform="translate(0,0)"
     id="g957">
    <path
       d="M235.03 28.875l-56.718 24.72 104.75 104.75c20.144 20.136 20.144 53.105 0 73.25-20.142 20.142-53.11 20.14-73.25 0l-104.437-104.44-20.688 51.782C113.004 210 131.48 257.957 135 307.375c1.212 17.01.622 34.248-2.094 50.97 149.04-19.577 267.116-137.07 285.531-283.47-17.79 3.418-36.113 4.446-54.156 3.406-49.99-2.88-98.137-21.155-129.25-49.405zm258 12.344c-16.42 13.404-35.253 22.85-55.217 28.905-16.75 160.278-146.32 289.245-309.063 307.563 0 .002-.03-.003-.03 0-5.427 19.857-14.23 38.525-27 54.625 77.81-1.162 148.893-22.316 208.5-58.688l106.655 6.563L419 273.625c46.883-64.243 73.995-144.145 74.03-232.406zm-289.405 64.124l-46.875 46.75 44.406 44.406 46.875-46.75-44.405-44.406zM90.155 218.53L19.97 288.563v88.782l93.25-93.063c-4.38-23.864-12.445-46.66-23.064-65.75z"
       fill="#fff"
       fill-opacity="1"
       id="path955"
       style="fill:#000000;fill-opacity:1" />
  </g>
</svg>
