<?xml version="1.0" encoding="UTF-8" standalone="no"?>
<svg
   style="height: 512px; width: 512px;"
   viewBox="0 0 512 512"
   version="1.1"
   id="svg1059"
   sodipodi:docname="pocket-bow.svg"
   inkscape:version="1.1 (c68e22c387, 2021-05-23)"
   xmlns:inkscape="http://www.inkscape.org/namespaces/inkscape"
   xmlns:sodipodi="http://sodipodi.sourceforge.net/DTD/sodipodi-0.dtd"
   xmlns="http://www.w3.org/2000/svg"
   xmlns:svg="http://www.w3.org/2000/svg">
  <defs
     id="defs1063" />
  <sodipodi:namedview
     id="namedview1061"
     pagecolor="#ffffff"
     bordercolor="#999999"
     borderopacity="1"
     inkscape:pageshadow="0"
     inkscape:pageopacity="0"
     inkscape:pagecheckerboard="0"
     showgrid="false"
     inkscape:zoom="1.3710938"
     inkscape:cx="255.63533"
     inkscape:cy="256"
     inkscape:window-width="1500"
     inkscape:window-height="930"
     inkscape:window-x="-6"
     inkscape:window-y="-6"
     inkscape:window-maximized="1"
     inkscape:current-layer="svg1059" />
  <g
     class=""
     style="fill:#000000;fill-opacity:1"
     transform="matrix(1,0,0,-1,0,509.868)"
     id="g1057">
    <path
       d="m 77.85,11.848 9.535,70.648 -69.418,-11.174 41.508,56.07 -11.127,322.715 c -11.712,13.235 -20.716,28.85 -25.823,47.914 74.198,-55.834 152.88,-71.602 223.606,-101.383 l -35.913,-35.914 c -53.122,25.232 -105.774,42.49 -142.547,71.347 l 9.674,-280.54 8.06,10.888 2.2,4.47 h 71.304 L 358.723,394.03 c 15.618,-13.627 29.605,-28.41 42.66,-44.645 L 171.506,155.605 V 84.226 l -11.86,-9.165 273.594,-10.66 c -29.99,36.36 -46.84,89.07 -71.39,142.416 l 36.558,36.56 c 29.22,-70.24 45.014,-148.09 100.262,-221.507 -18.54,4.97 -33.69,13.015 -46.604,23.603 l -0.02,-0.506 -315.437,12.29 -58.76,-45.41 z m 24.613,42.638 50.355,38.916 v 54.795 H 99.236 l -0.607,-0.146 -38.357,-50.988 49,7.89 -6.81,-50.466 z m 248.103,167.48 c -8.162,13.275 -17.044,25.835 -26.586,37.727 l 30.727,25.903 c 11.16,-8.75 22.568,-17.176 34.06,-25.432 l -38.2,-38.2 z m 100.006,89.74 C 414.826,368.52 375.184,412.43 315.88,447.67 c 59.143,20.683 118.488,37.302 178.8,43.98 -8.706,-60.66 -23.977,-120.562 -44.108,-179.94 z m -184.08,5.774 c -13.42,10.98 -27.58,21.186 -42.414,30.674 l 37.47,37.47 c 8.748,-14.57 18.62,-27.954 29.327,-40.43 z"
       fill="#fff"
       fill-opacity="1"
       id="path1055"
       style="fill:#000000;fill-opacity:1" />
  </g>
</svg>
